<?xml version="1.0" standalone="no"?>
<!DOCTYPE svg PUBLIC "-//W3C//DTD SVG 20010904//EN"
 "http://www.w3.org/TR/2001/REC-SVG-20010904/DTD/svg10.dtd">
<svg version="1.0" xmlns="http://www.w3.org/2000/svg"
 width="612.000000pt" height="612.000000pt" viewBox="0 0 612.000000 612.000000"
 preserveAspectRatio="xMidYMid meet">
<metadata>
Created by potrace 1.14, written by Peter Selinger 2001-2017
</metadata>
<g transform="translate(0.000000,612.000000) scale(0.100000,-0.100000)"
fill="#000000" stroke="none">
<path d="M1780 3895 l0 -285 430 0 430 0 0 -556 0 -556 116 -187 c64 -102 118
-188 120 -190 2 -2 4 388 4 868 l0 871 -425 -2 -425 -3 0 38 0 37 465 0 465 0
0 -971 0 -972 61 -99 62 -99 33 53 c18 29 47 76 63 104 l31 51 0 967 0 966
440 0 440 0 0 -35 0 -35 -402 -2 -403 -3 -3 -870 c-1 -586 1 -866 8 -859 6 6
62 93 125 194 l115 183 0 554 0 553 405 0 405 0 0 285 0 285 -1280 0 -1280 0
0 -285z"/>
</g>
</svg>
